<svg xmlns="http://www.w3.org/2000/svg" viewBox="0 0 512 512" width="512" height="512">
<defs><linearGradient id="rose" x1="0" y1="0" x2="1" y2="1"><stop offset="0" stop-color="#C77F8D"/><stop offset="0.55" stop-color="#B86B7A"/><stop offset="1" stop-color="#A4596A"/></linearGradient></defs>
<rect width="512" height="512" fill="url(#rose)"/>
<circle cx="256" cy="256" r="180" fill="#FBF8F4"/>
<circle cx="256" cy="256" r="152" fill="#F4ECE4"/>
<path d="M256,256 L256.0,406.0 A150,150 0 0 1 256.0,106.0 Z" fill="#7E8C72"/>
<path d="M256,256 L256.0,106.0 A150,150 0 0 1 406.0,256.0 Z" fill="#C77F8D"/>
<path d="M256,256 L406.0,256.0 A150,150 0 0 1 256.0,406.0 Z" fill="#C9A24B"/>
<line x1="256" y1="256" x2="406.0" y2="256.0" stroke="#FBF8F4" stroke-width="9" stroke-linecap="round"/><line x1="256" y1="256" x2="256.0" y2="406.0" stroke="#FBF8F4" stroke-width="9" stroke-linecap="round"/><line x1="256" y1="256" x2="256.0" y2="106.0" stroke="#FBF8F4" stroke-width="9" stroke-linecap="round"/>
<circle cx="256" cy="256" r="15" fill="#FBF8F4"/>
</svg>